<svg xmlns="http://www.w3.org/2000/svg" viewBox="0 0 750 500"><g id="freepik--background-simple--inject-2"><path d="M591.43,66.69C519.72,57.35,479,97.12,382.59,101.45,286.84,94,250.33,52.89,177.76,59.85,99.68,67.33,39.2,169.07,56.41,270.85S180.27,429.52,234.79,429.17c43.58-.28,82.07-18,131.76-22.26,49.15,5.88,85.72,24.85,129.19,26.57,54.39,2.16,166.82-51.12,194.68-152.15S668.59,76.73,591.43,66.69Z" style="fill:#008080"></path><path d="M591.43,66.69C519.72,57.35,479,97.12,382.59,101.45,286.84,94,250.33,52.89,177.76,59.85,99.68,67.33,39.2,169.07,56.41,270.85S180.27,429.52,234.79,429.17c43.58-.28,82.07-18,131.76-22.26,49.15,5.88,85.72,24.85,129.19,26.57,54.39,2.16,166.82-51.12,194.68-152.15S668.59,76.73,591.43,66.69Z" style="fill:#fff;opacity:0.7000000000000001"></path></g><g id="freepik--Floor--inject-2"><line x1="36.8" y1="452.89" x2="736.25" y2="452.89" style="fill:none;stroke:#263238;stroke-linecap:round;stroke-linejoin:round"></line></g><g id="freepik--Plants--inject-2"><g style="opacity:0.15"><path d="M203.88,79.62c-4.22,4.15-16.71,8.61-16.72,8.61s-.44-9.13-.39-9.71c.54-6.72,5.54-19.4,12.9-21.13,5.3-1.25,10,2.72,10.71,7.9S207.48,76.08,203.88,79.62Z"></path><path d="M196.32,247.82c.06.3.12.58.17.88l-3.92,3.62c-.22-1.21-.44-2.43-.65-3.7-.63-3.58-1.22-7.42-1.79-11.37a97.22,97.22,0,0,1-11.38-.85c-2.12,5.3-9.62,13.42-10.6,14.46,2.44,2.61,4.85,5.13,7.16,7.48q2.37,2.42,4.6,4.62l-4.68,1.8-3.16-3.32c-2.49-2.65-5.1-5.53-7.76-8.5-1.22.78-11.23,7.14-16.73,7.94-5,.72-11.55.25-15.34-3.51s-4-9.84.19-13.3c5.83-4.81,18.95-1.12,24.63,2.52.34.22,3.72,2.95,5.82,4.71-1.08-1.22-2.14-2.4-3.23-3.67-2.19-2.5-4.29-5.06-6.56-7.81l-3.19-4.13c-1.09-1.36-2.07-2.94-3.12-4.41-2.38-3.47-4.61-7.11-6.78-10.82-2.19,1.91-10.09,8.56-14.93,10s-11.37,2-15.69-1.14-5.45-9.12-1.83-13.18c5-5.64,18.57-4,24.73-1.24.39.17,4.59,2.63,6.88,4-1.29-2.24-2.58-4.47-3.81-6.78-3.55-6.66-6.93-13.52-10.33-20.35-1-2.09-2.11-4.16-3.17-6.24-.77.69-10,8.8-15.41,10.45-4.82,1.47-11.37,2-15.68-1.14s-5.46-9.12-1.83-13.18c5-5.64,18.56-4,24.73-1.24.46.21,6.51,3.76,8,4.73-2.33-4.57-4.69-9.11-7.2-13.49a157.73,157.73,0,0,0-11.2-17.08c-.36.32-9.93,8.83-15.49,10.52-4.82,1.47-11.37,2-15.69-1.14s-5.45-9.12-1.82-13.18c5-5.64,18.56-4,24.73-1.24.48.22,7,4,8.11,4.81-.24-.31-.45-.66-.7-1a114.28,114.28,0,0,0-14.13-14.81c-2.8-2.53-5.63-4.79-8.42-6.92-1.63,1.76-9.12,9.76-13.95,11.83-4.64,2-11.09,3.23-15.72.59s-6.42-8.46-3.27-12.9c4.39-6.15,18-6,24.45-3.94.35.11,3.78,1.63,6.26,2.77-1.28-.94-2.58-1.94-3.82-2.82-4.65-3.32-9.12-6.06-13.09-8.47-2.27-1.35-4.35-2.52-6.31-3.6-2.5.9-12.6,4.42-17.75,4S25.32,117,22.43,112.49,20.63,102,25.48,99.54c6.72-3.44,18.74,3,23.51,7.76.41.42,6.11,7.61,6,7.66l-.15.05c1.91,1,3.94,2.1,6.13,3.34,4,2.32,8.58,5,13.32,8.21A157.46,157.46,0,0,1,89.08,137.7a116.08,116.08,0,0,1,14.63,14.69,1.49,1.49,0,0,1,.15.2c-.83-2.06-3-7.88-3.06-8.34-1.58-6.56-.78-20.17,5.67-24.11,4.65-2.83,10.38-.54,12.64,4.17s.61,11.16-1.71,15.64c-2.6,5.05-12.28,12.68-13.05,13.29a158.86,158.86,0,0,1,12,17.39c2.11,3.52,4.14,7.13,6.12,10.77-.66-1.8-1.23-3.41-1.29-3.64-1.58-6.56-.78-20.17,5.67-24.1,4.65-2.84,10.38-.54,12.64,4.16s.61,11.16-1.7,15.64-10.47,11.22-12.64,12.95c.74,1.41,1.51,2.8,2.25,4.21,3.55,6.76,7.07,13.52,10.73,20,1.28,2.3,2.64,4.51,4,6.74-.58-1.6-1.06-2.95-1.11-3.16-1.58-6.56-.78-20.17,5.67-24.11,4.64-2.83,10.38-.54,12.64,4.17s.6,11.16-1.71,15.64-9.68,10.56-12.25,12.64c1.45,2.23,2.89,4.47,4.39,6.58,1.06,1.41,2,2.84,3.12,4.2l3.28,4.07c2.17,2.5,4.4,5.11,6.58,7.5,1.51,1.68,3,3.24,4.45,4.83-1.31-2.27-3.78-6.78-3.94-7.18a34.68,34.68,0,0,1-1.69-17.44,11.2,11.2,0,0,1-.59-1.89c-1.07-5.11,2.09-10.42,7.5-11,7.52-.8,16.42,9.52,19.15,15.69.17.36,1.47,4.51,2.25,7.13-.22-1.61-.46-3.18-.67-4.84-.44-3.29-.78-6.59-1.16-10.13-.12-1.72-.25-3.46-.37-5.21s-.11-3.59-.18-5.4c-.06-4.2.08-8.47.32-12.76-2.88.38-13.14,1.57-18,.13s-10.58-4.61-12.46-9.61.49-10.61,5.75-12c7.31-1.92,17.68,6.93,21.31,12.61.23.36,2.38,4.73,3.51,7.15.17-2.58.32-5.15.57-7.75.71-7.52,1.67-15.1,2.6-22.67.29-2.32.54-4.64.81-7-1,.14-13.18,1.82-18.62.21-4.83-1.44-10.58-4.61-12.45-9.61s.48-10.61,5.75-12c7.3-1.92,17.67,6.93,21.3,12.61.28.43,3.36,6.73,4.07,8.36.58-5.09,1.11-10.18,1.43-15.22a156.57,156.57,0,0,0,.09-20.42c-.48.06-13.16,1.88-18.73.22-4.83-1.43-10.58-4.61-12.45-9.6s.48-10.62,5.75-12c7.3-1.93,17.67,6.92,21.3,12.6.29.45,3.6,7.23,4.12,8.5,0-.4,0-.81,0-1.2A116.34,116.34,0,0,0,189.77,100c-1-3.66-2.06-7.1-3.21-10.42-2.33.58-13,3.11-18.17,2.17-5-.89-11-3.41-13.43-8.17s-.69-10.61,4.39-12.56c7.05-2.72,18.33,4.94,22.57,10.19.23.28,2.25,3.45,3.69,5.77-.55-1.49-1.08-3-1.63-4.46-2-5.33-4.26-10.09-6.25-14.29-1.15-2.38-2.24-4.5-3.28-6.48-2.58-.63-12.94-3.27-17-6.42s-8.21-8.12-8.15-13.45,4.28-9.73,9.69-9.12c7.51.84,14,12.83,15.33,19.44.11.57.89,9.72.76,9.69l-.15,0c1,1.88,2.12,3.92,3.27,6.16,2.08,4.16,4.4,8.89,6.58,14.2A162,162,0,0,1,191,99.63a117.12,117.12,0,0,1,4.1,20.32,2.09,2.09,0,0,0,0,.25c.44-2.17,1.88-8.19,2.05-8.64,2.3-6.35,10.47-17.25,18-17,5.44.2,9,5.28,8.24,10.45s-5.65,9.64-10,12.1c-5,2.78-17.25,3.8-18.22,3.88a159.11,159.11,0,0,1,.39,21.12c-.17,4.1-.48,8.23-.83,12.36.44-1.86.85-3.52.93-3.75,2.3-6.34,10.48-17.25,18-17,5.44.19,9,5.27,8.24,10.44s-5.65,9.65-10,12.11-14.91,3.58-17.68,3.83c-.16,1.58-.29,3.17-.45,4.75-.76,7.6-1.56,15.18-2.11,22.64-.19,2.62-.29,5.22-.39,7.82.39-1.66.74-3.05.81-3.25,2.3-6.35,10.48-17.25,18-17,5.44.2,9,5.28,8.24,10.45s-5.65,9.64-10.05,12.1-13.9,3.47-17.19,3.78c0,2.67-.06,5.33,0,7.91.1,1.77.08,3.47.28,5.23s.33,3.48.49,5.2c.43,3.29.85,6.69,1.35,9.89.33,2.23.69,4.35,1,6.48.17-2.62.59-7.74.68-8.16,1.31-6.62,7.74-18.63,15.24-19.51,5.41-.63,9.65,3.86,9.73,9.08s-4.12,10.39-8.09,13.49c-4.38,3.41-15.88,6.22-17.32,6.56C195.07,241.16,195.69,244.59,196.32,247.82Z"></path><path d="M79.63,130.28c-.08.11-5.41-7.37-5.69-7.88-3.25-5.91-6.07-19.24-.89-24.74,3.73-4,9.86-3.26,13.29.68s3.53,10.6,2.48,15.53C87.59,119.66,79.63,130.27,79.63,130.28Z"></path></g><g style="opacity:0.15"><path d="M486.87,105.88c4.22,4.15,16.71,8.61,16.72,8.61s.44-9.13.39-9.71c-.54-6.72-5.54-19.4-12.9-21.13-5.3-1.25-10,2.72-10.7,7.9S483.28,102.34,486.87,105.88Z"></path><path d="M494.43,274.08c-.06.3-.11.58-.17.88l3.93,3.62c.21-1.21.43-2.43.65-3.7.62-3.58,1.21-7.42,1.78-11.37a97.48,97.48,0,0,0,11.39-.85c2.11,5.3,9.62,13.42,10.59,14.46-2.44,2.61-4.85,5.13-7.15,7.47-1.59,1.62-3.12,3.16-4.61,4.63l4.68,1.79c1-1.07,2.08-2.17,3.16-3.31,2.49-2.65,5.1-5.53,7.76-8.5,1.22.78,11.24,7.14,16.74,7.94,5,.72,11.54.25,15.33-3.51s4-9.84-.19-13.3c-5.83-4.81-19-1.12-24.63,2.52-.34.21-3.71,2.95-5.82,4.71,1.08-1.22,2.14-2.4,3.24-3.67,2.18-2.5,4.28-5.06,6.55-7.81l3.19-4.13c1.09-1.36,2.07-2.94,3.13-4.41,2.37-3.47,4.6-7.11,6.77-10.82,2.2,1.91,10.09,8.56,14.93,10s11.37,2,15.69-1.14,5.45-9.12,1.83-13.18c-5-5.64-18.56-4-24.73-1.24-.39.17-4.59,2.63-6.88,4,1.29-2.24,2.59-4.47,3.81-6.78,3.55-6.67,6.93-13.52,10.34-20.35,1-2.09,2.1-4.16,3.16-6.24.77.69,10,8.8,15.41,10.45,4.82,1.46,11.37,2,15.68-1.14s5.46-9.12,1.83-13.18c-5-5.64-18.56-4-24.73-1.24-.46.2-6.51,3.75-8,4.73,2.33-4.57,4.69-9.11,7.2-13.49a157.73,157.73,0,0,1,11.2-17.08c.36.32,9.93,8.83,15.49,10.52,4.82,1.46,11.37,2,15.69-1.14s5.45-9.12,1.82-13.18c-5-5.64-18.56-4-24.73-1.24-.48.21-7,4-8.11,4.81.24-.31.45-.66.7-1a114.28,114.28,0,0,1,14.13-14.81c2.8-2.53,5.63-4.79,8.43-6.92,1.62,1.76,9.11,9.76,14,11.83,4.63,2,11.08,3.23,15.71.59s6.43-8.47,3.27-12.9c-4.39-6.15-18-6-24.45-3.94-.35.11-3.77,1.63-6.26,2.77,1.28-.94,2.58-1.94,3.82-2.82,4.65-3.32,9.12-6.07,13.09-8.47,2.28-1.35,4.35-2.52,6.31-3.6,2.5.9,12.6,4.42,17.75,4s11.33-2.24,14.22-6.72,1.8-10.47-3.05-13c-6.72-3.44-18.74,3-23.51,7.76-.41.41-6.11,7.61-6,7.66l.15.05c-1.91,1-3.94,2.1-6.13,3.34-4,2.32-8.57,5-13.32,8.21A158.77,158.77,0,0,0,601.67,164,116.08,116.08,0,0,0,587,178.65l-.15.19c.83-2.05,3-7.87,3.06-8.33,1.58-6.56.78-20.17-5.67-24.11-4.64-2.83-10.38-.54-12.64,4.17s-.6,11.16,1.71,15.64c2.6,5,12.28,12.68,13,13.29a157.42,157.42,0,0,0-12,17.39c-2.12,3.52-4.15,7.13-6.13,10.77.66-1.8,1.23-3.41,1.29-3.64,1.58-6.56.78-20.17-5.67-24.11-4.65-2.83-10.38-.54-12.64,4.17s-.61,11.16,1.7,15.64,10.47,11.22,12.64,12.95c-.74,1.41-1.5,2.8-2.25,4.21-3.55,6.76-7.07,13.52-10.73,20.05-1.28,2.3-2.64,4.51-4,6.74.58-1.6,1.06-2.95,1.11-3.16,1.58-6.57.78-20.17-5.66-24.11-4.65-2.83-10.39-.54-12.64,4.17s-.61,11.16,1.7,15.64,9.68,10.56,12.25,12.64c-1.45,2.23-2.89,4.47-4.39,6.58-1.06,1.41-2,2.84-3.12,4.2l-3.27,4.06c-2.18,2.51-4.41,5.11-6.59,7.51-1.51,1.68-3,3.24-4.45,4.83,1.31-2.28,3.78-6.78,3.94-7.18a34.68,34.68,0,0,0,1.69-17.44,11.2,11.2,0,0,0,.59-1.89c1.07-5.11-2.09-10.42-7.5-11-7.52-.79-16.42,9.53-19.15,15.7-.16.36-1.47,4.51-2.25,7.13.22-1.61.46-3.18.67-4.84.44-3.29.78-6.59,1.16-10.13.12-1.72.25-3.46.37-5.21s.12-3.59.18-5.4c.06-4.2-.08-8.47-.32-12.76,2.89.38,13.14,1.57,18,.13s10.59-4.61,12.46-9.61-.49-10.61-5.75-12c-7.31-1.92-17.68,6.93-21.31,12.61-.23.36-2.38,4.73-3.51,7.15-.16-2.58-.31-5.15-.56-7.75-.72-7.52-1.68-15.1-2.61-22.68-.29-2.31-.54-4.63-.81-6.94,1,.14,13.18,1.82,18.62.21,4.83-1.44,10.58-4.61,12.45-9.61s-.48-10.61-5.74-12c-7.31-1.92-17.68,6.93-21.31,12.61-.28.43-3.36,6.72-4.07,8.36-.58-5.09-1.11-10.18-1.43-15.22a156.57,156.57,0,0,1-.09-20.42c.48.06,13.16,1.88,18.73.22,4.83-1.44,10.58-4.61,12.45-9.6s-.48-10.62-5.74-12c-7.31-1.92-17.68,6.93-21.31,12.61-.29.45-3.6,7.23-4.11,8.5,0-.4,0-.81,0-1.2A115.4,115.4,0,0,1,501,126.22c.95-3.66,2.06-7.1,3.21-10.42,2.33.58,13,3.11,18.17,2.17,5-.89,11-3.42,13.44-8.17s.68-10.61-4.4-12.57c-7-2.71-18.33,5-22.56,10.2-.23.28-2.26,3.45-3.69,5.77.54-1.49,1.07-3,1.62-4.46,2.05-5.33,4.26-10.09,6.25-14.29,1.15-2.38,2.24-4.51,3.28-6.48,2.58-.63,12.94-3.27,17-6.42s8.21-8.12,8.15-13.45S537.2,58.37,531.8,59c-7.51.84-14,12.83-15.33,19.44-.12.57-.9,9.72-.77,9.69l.16,0c-1,1.88-2.13,3.92-3.28,6.16-2.08,4.16-4.4,8.89-6.57,14.2a157.76,157.76,0,0,0-6.21,17.46,115.28,115.28,0,0,0-4.1,20.32c0,.08,0,.17,0,.25-.44-2.17-1.88-8.19-2.05-8.64-2.3-6.35-10.47-17.25-18-17-5.44.2-9,5.28-8.24,10.45s5.65,9.64,10,12.1c5,2.78,17.25,3.8,18.23,3.88a157.41,157.41,0,0,0-.4,21.12c.17,4.1.48,8.23.83,12.36-.44-1.86-.85-3.52-.93-3.75-2.3-6.34-10.48-17.25-18-17-5.44.19-8.95,5.27-8.24,10.44s5.65,9.65,10.05,12.11,14.91,3.58,17.69,3.83c.15,1.58.28,3.16.44,4.75.77,7.6,1.56,15.18,2.11,22.64.19,2.62.29,5.22.4,7.82-.4-1.66-.75-3.05-.82-3.25-2.3-6.35-10.47-17.25-18-17-5.44.2-8.95,5.28-8.24,10.45s5.65,9.64,10,12.1,13.9,3.47,17.19,3.78c0,2.67.06,5.33,0,7.91-.11,1.77-.08,3.47-.29,5.23s-.32,3.48-.48,5.2c-.43,3.29-.86,6.69-1.36,9.89-.33,2.23-.69,4.35-1,6.48-.16-2.62-.59-7.74-.68-8.16-1.31-6.62-7.74-18.63-15.24-19.51-5.41-.63-9.65,3.86-9.73,9.08s4.12,10.39,8.1,13.48c4.37,3.42,15.87,6.23,17.31,6.57C495.68,267.42,495.06,270.85,494.43,274.08Z"></path><path d="M611.12,156.54c.09.11,5.41-7.37,5.69-7.88,3.26-5.91,6.08-19.24.9-24.74-3.74-4-9.87-3.26-13.29.68s-3.54,10.6-2.49,15.53C603.16,145.92,611.12,156.53,611.12,156.54Z"></path></g></g></svg>
